# xmcd
# 
# Track frame offsets:
#     150
#     18471
#     33328
#     47834
#     62540
#     78710
#     93469
#     109904
#     126249
#     144993
#     163035
#     180915
# 
# Disc length: 2597
# 
# Revision: 0
# Processed by: cddbd v1.5.2PL0 Copyright (c) Steve Scherf et al.
# Submitted via: fre:ac v1.0.27
# 
DISCID=9b0a230c
DTITLE=MATHIEU LIPPÉ - LES AMANTS DE L'AUBE
DYEAR=2017
DGENRE=Other
TTITLE0=J'oserai
TTITLE1=L'Amour ne connaît pas la mort
TTITLE2=Les Amants de L'Aube
TTITLE3=Aujourd'hui
TTITLE4=Sans que l'oiseau perde ses plumes
TTITLE5=Océane
TTITLE6=Tout autour
TTITLE7=Le monde sera beau
TTITLE8=Par corps
TTITLE9=Nul part ailleurs
TTITLE10=Paradis
TTITLE11=Ce que nous sommes
EXTD=http://mathieulippe.com\nhttp://productionsmartinleclerc.com
EXTT0=
EXTT1=
EXTT2=
EXTT3=
EXTT4=
EXTT5=
EXTT6=
EXTT7=
EXTT8=
EXTT9=
EXTT10=
EXTT11=
PLAYORDER=
